<?xml version="1.0" encoding="UTF-8" standalone="yes"?>
<!-- Created with sK1/UniConvertor (http://sk1project.org/) -->
<svg xmlns="http://www.w3.org/2000/svg" xmlns:xlink="http://www.w3.org/1999/xlink"
  width="595.276pt" height="841.89pt" viewBox="0 500 400 400"
  fill-rule="evenodd">
<g>
<path style="stroke:none; fill:#000000" d="M 0 541.89L 400 541.89L 400 841.89L 0 841.89L 0 541.89zM 230.94 551.79C 230.54 554.84 231.18 558.24 228.77 560.61C 227.6 565.19 226.84 570.91 229.97 574.91C 235.31 578.45 238.47 585.73 235.87 591.87C 234.62 595.32 231.73 599.14 233.85 602.85C 236.43 606.04 240.43 607.66 243.21 610.67C 247.18 614.95 251.05 619.32 254.86 623.73C 255.89 622.7 257.14 621.85 257.95 620.62C 258.5 617.95 257.95 615.16 258.66 612.51C 259.65 609.81 262.68 609.11 264.71 607.46C 265.13 605.58 264.8 603.64 264.45 601.78C 263.14 595.5 261.71 589.24 260.87 582.89C 260.31 578.6 261.27 574.33 261.69 570.07C 261.47 566.85 261.16 563.59 260.23 560.47C 259.17 561.14 258.14 561.85 257.13 562.59C 256.27 561.25 255.44 559.82 253.99 559.04C 251.63 559.89 249.75 561.6 247.63 562.88C 246.59 560.3 246.16 557.54 245.29 554.91C 244.17 555.21 243.05 555.5 241.92 555.77C 238.62 553.56 234.67 552.93 230.94 551.79zM 275.7 561.29C 271.85 561.33 268.98 564.31 265.3 565.01C 265.2 567.86 264.02 570.48 263.42 573.23C 261.44 583.94 265.73 594.37 267.08 604.89C 267.02 606.38 266.67 607.83 266.42 609.29C 264.4 610.49 261.72 611.1 260.59 613.37C 260.14 615.81 260.52 618.31 260.14 620.76C 259.3 622.72 257.51 623.98 256.07 625.45C 258.25 627.82 260.66 629.98 263.5 631.51C 267.36 633.69 268.14 639.6 273.02 640.24C 278.22 640.53 283.05 638.2 287.98 636.93C 294.27 634.85 301.09 638.11 307.2 635.02C 307.03 629.96 311.57 627.05 313.46 622.88C 313.57 618.75 311.95 614.83 310.67 610.98C 307.16 611.07 303.61 611.84 300.13 611.07C 297.38 609.75 296.85 606.37 296.67 603.65C 296.54 599.62 296.11 595.54 296.66 591.53C 297.78 590.02 299.33 588.84 300.19 587.14C 297.95 583.53 297.15 579.26 296.43 575.14C 297.58 571.77 302.04 569.96 300.86 565.8C 297.89 565.35 294.86 565.53 291.92 564.92C 291.08 563.42 290.45 561.82 289.69 560.29C 285.05 558.27 280.39 560.95 275.7 561.29zM 215.76 572.45C 215.46 573.08 214.87 574.35 214.57 574.98C 215.49 576.94 216.94 578.73 217.33 580.89C 217.3 583.43 216.93 585.96 216.36 588.43C 215.11 590.42 212.67 590.76 210.67 591.55C 209.49 594.66 207.02 596.67 204.27 598.35C 203.31 602 207.8 604.31 207.97 607.8C 207.73 609.7 206.15 611.63 207.15 613.54C 209.52 620.31 217.67 621.69 221.49 627.37C 223.1 630.24 226.49 630.44 229.3 631.33C 230.17 634.24 229.51 637.77 231.8 640.09C 232.88 641.31 233.88 642.75 235.39 643.45C 238.88 643.6 242.4 643.44 245.78 644.45C 250.01 645.71 254.56 642.21 255.26 638.04C 255.57 635.08 258.34 633.7 260.57 632.28C 258.23 630.67 256.18 628.7 254.44 626.48C 250.3 621.3 245.83 616.39 241.25 611.61C 238.15 608.4 233.12 606.9 231.42 602.51C 229.17 596.68 235.52 591.97 234.65 586.15C 234.1 582.49 232.25 578.84 229.03 576.84C 226.95 575.68 226.9 573.09 226.08 571.11C 222.7 571.96 219.2 571.97 215.76 572.45zM 165.77 605.61C 160.75 608.77 155.64 613.05 149.31 612.5C 149.31 614.71 149.49 616.92 149.21 619.12C 148.59 620.56 146.64 620.7 145.77 621.96C 145.44 625.74 145.71 629.57 145.16 633.33C 143.71 636.84 140.27 639.31 139.42 643.09C 138.81 649.26 138.55 655.46 138.32 661.65C 138.27 664.22 136.73 667.16 133.95 667.5C 131.28 668.17 128.97 666.18 126.54 665.44C 131.35 670.01 133.14 677.04 139.02 680.62C 142.15 676.83 145.29 673.03 148.68 669.49C 150.17 667.68 151.53 670.46 152.87 671.14C 154.88 673.38 158.12 671.45 159.66 669.59C 161.59 667.7 160.63 664.35 162.77 662.63C 165.53 660.16 169.86 660.17 172.2 657.14C 173.1 655.34 172.78 653.2 173.35 651.29C 174.75 649 177.37 647.9 179.58 646.56C 180.73 641.36 179.97 636.13 178.88 631.01C 180.97 628.32 184.7 627.79 187.62 626.33C 188.27 624.19 189.09 622.1 189.54 619.9C 189.61 617.21 189.02 614.55 188.89 611.87C 188.89 609.08 186.54 606.98 186.54 604.16C 186.54 600.94 182.55 601.6 180.48 600.6C 178.98 599.01 178.43 596.77 177.08 595.06C 171.5 596.05 170.21 602.85 165.77 605.61zM 200.24 622.13C 200.35 623.53 200.47 624.93 200.59 626.34C 202.54 626.66 205.44 626.22 206.08 628.69C 207 632.16 207.11 635.86 208.59 639.19C 210.64 643.62 211.31 649.24 208.72 653.58C 207.06 655.72 201.65 656.11 203.69 659.78C 206.19 661.19 208.7 662.69 210.14 665.3C 213.52 665.49 217 664.92 220.32 665.74C 224.46 667.58 225.85 672.23 228.18 675.74C 230.16 675.76 232.13 675.67 234.11 675.54C 235.43 676.66 236.75 677.79 238.07 678.91C 240.82 675.6 244.16 672.91 247.64 670.42C 248.96 667.87 249.65 664.77 252.48 663.38C 254.53 662.4 254.02 658.94 256.5 658.62C 260.08 658.31 263.32 656.77 266.67 655.61C 270.91 654.41 273.31 649.75 277.96 649.54C 277.87 647.05 277.87 644.56 277.97 642.07C 274.97 642.34 271.62 642.77 269.06 640.8C 266.51 638.73 265.04 635.69 263.01 633.16C 261.06 634.69 257.96 635.52 257.46 638.26C 256.46 643.93 250.05 648.24 244.46 646.33C 240.96 645.25 237.19 646.19 233.72 645.15C 230 642.13 227.23 637.81 227.57 632.84C 225.85 632.4 224.01 632.28 222.44 631.4C 220.34 629.5 218.81 627.03 216.58 625.25C 213.77 623.06 210.74 621.19 207.82 619.15C 205.36 620.3 202.81 621.26 200.24 622.13zM 189.5 627.36C 186.86 629.06 183.9 630.14 180.97 631.2C 182.45 636.33 182.57 641.64 181.64 646.88C 183.64 649.83 183.76 653.31 183.66 656.75C 184.96 658.09 186.61 659.2 187.46 660.92C 187.53 664.6 187.32 668.28 187.29 671.96C 187.31 674.89 185.36 677.19 183.82 679.49C 186.78 682.42 189.64 685.46 192.33 688.64C 200.79 686.13 209.46 690.22 218.04 688.83C 225.15 689.09 231.6 685.33 238.68 685.46C 238.69 684.05 238.72 682.64 238.78 681.24C 236.31 680.52 234.6 677.86 231.91 678.06C 230.2 677.94 228.17 678.39 226.86 676.99C 224.38 674.64 223.86 670.88 221.18 668.7C 217.3 665.4 210.77 669.87 207.57 665.37C 205.98 663.14 203.23 662.32 201.34 660.43C 201.06 658.84 201.22 657.18 201.75 655.65C 203.35 654.17 205.62 653.63 207.14 652.05C 208.94 648.32 208.42 643.89 206.77 640.2C 205.26 636.66 204.82 632.81 204.11 629.06C 202.37 628.79 200.64 628.56 198.9 628.31C 198.63 626.48 198.4 624.64 198.13 622.8C 195.59 624.96 192.2 625.5 189.5 627.36zM 309.56 637.41C 305.35 637.67 301.25 639.23 296.99 638.42C 291.18 637.53 285.65 639.91 280.15 641.36C 279.79 646.58 280.35 651.75 281.13 656.9C 281.84 660.73 278.32 663.85 279.21 667.64C 280.34 671.23 282.96 674.14 284.05 677.75C 284.68 680.36 284.89 683.05 285.24 685.71C 291.39 686.33 297.55 686.02 303.58 684.66C 303.2 678.81 309.52 676.22 311.86 671.57C 312.29 669.83 312.18 668.01 312.32 666.23C 313.59 665.41 314.87 664.58 316.15 663.75C 315.89 661.04 315.24 658.38 314.34 655.81C 315.35 654.78 316.42 653.79 317.34 652.67C 317.72 649.06 316.85 645.45 317.08 641.83C 317 640.09 317.72 637.97 316.18 636.66C 314.03 635.45 311.64 636.7 309.56 637.41zM 176.8 650.59C 174 652.36 175.86 656.36 173.72 658.61C 171.2 661.78 166.59 661.85 163.82 664.64C 163.15 669.19 160.02 674.01 155.02 674.26C 152.79 674.6 151.39 672.54 149.75 671.42C 146.86 674.69 143.81 677.81 141.1 681.23C 148.74 685.13 156.66 688.66 163.51 693.9C 162.84 695.94 161.58 698.7 164.42 699.66C 169.45 701.29 174.87 700.6 180.07 700.78C 185.51 701.24 190.47 698.27 194.68 695.16C 190.74 689.4 185.71 684.52 181.47 679C 182.96 676.82 185.11 674.76 185.16 671.94C 185.25 668.57 185.32 665.2 185.43 661.84C 184.44 660.11 182.73 658.93 181.76 657.19C 181.25 654.42 181.63 651.53 180.7 648.82C 179.33 649.23 177.9 649.62 176.8 650.59zM 53.26 658.91C 53.74 661.58 56.28 663.3 57.58 665.61C 55.03 668.31 51.38 670.3 50.23 674.05C 48.84 677.92 46.68 681.68 43.36 684.21C 40.69 686.08 36.75 685.86 34.67 688.54C 34.1 691.4 34.47 694.79 32.18 697C 31.1 697.38 30 697.7 28.89 697.98C 29.4 700.91 30.2 703.78 31.13 706.6C 33.69 707.2 36.14 708.15 38.53 709.21C 41.82 709.68 45.76 708.95 48.29 711.63C 50.41 714.84 47.22 720.32 51.59 722.26C 51.91 719.98 51.02 716.78 53.59 715.52C 57.24 713.62 61.7 713.05 65.7 714.01C 67.03 715.18 67.78 716.89 69.19 717.99C 71.16 718.23 73.16 718.07 75.14 717.99C 76.35 714.17 76.05 709.5 79.07 706.51C 81.56 706.47 83.59 708.62 83.47 711.08C 83.31 717.43 85.8 723.38 87.58 729.35C 90.8 730.97 94.58 729.74 98.02 729.84C 100.92 729.5 104.82 730.36 106.74 727.56C 108.07 720.46 106.95 713.16 107.86 706.01C 112.22 707.22 116.63 708.38 121.22 708.17C 120.29 705.84 119.32 703.52 118.54 701.13C 120.11 702.29 122.27 703.2 122.65 705.35C 124.93 712.46 130.15 718.7 130.57 726.32C 128.11 729.01 124.87 730.95 122.87 734.05C 122.93 737.32 122.86 741.05 125.29 743.57C 127.34 747.1 132.01 748.38 133.29 752.41C 134.84 757.9 134.78 763.66 135.76 769.25C 136.04 771.61 138.44 772.51 140.2 773.61C 141.64 770.97 142.91 768.12 145.24 766.12C 147.19 764.22 149.93 763.54 152.14 762.02C 154.46 759.4 154.06 755.55 155.6 752.53C 157.16 749.27 158.5 745.93 159.66 742.51C 165.88 741.51 172.21 741.58 178.48 741.29C 177.99 742.53 176.99 743.44 175.6 743.37C 170.76 743.92 165.89 743.91 161.04 744.3C 160.35 747.26 159.2 750.07 157.79 752.76C 155.91 756.14 156.38 760.57 153.57 763.45C 151.29 765.3 148.23 765.93 146.15 768.06C 144.49 769.53 143.61 771.6 142.75 773.59C 146.67 773.11 149.8 770.45 153.6 769.53C 156.66 769.03 157.87 765.17 161.05 765.17C 170 764.98 178.86 766.93 187.81 766.67C 190.01 771.13 189.33 776.6 192.09 780.78C 195.07 784.81 200.41 783.57 204.71 783.64C 204.4 776.97 206.93 770.53 206.25 763.82C 206.82 760.51 204.7 757.92 202.69 755.6C 204.02 756.05 205.86 755.85 206.67 757.26C 208.97 759.93 208.23 763.66 208.36 766.89C 208.7 773.79 205.21 780.65 207.58 787.46C 209.15 791.61 211.02 795.72 210.98 800.27C 212.46 800 213.94 799.7 215.42 799.4C 215.62 797.3 215.78 795.2 215.95 793.11C 218.28 793.1 220.61 793.12 222.94 793.13C 224.75 796.32 225.85 799.9 227.98 802.9C 231.67 806.28 237.08 803.93 240.84 801.88C 242.92 799.99 243.13 796.83 244.32 794.39C 245.97 795.62 248.68 796.58 248.38 799.1C 248.31 804.75 250.29 810.27 249.54 815.92C 249.27 818.09 249.56 820.26 249.93 822.39C 251.43 822.74 252.97 823.01 254.44 823.49C 256.88 825.42 258.21 828.4 260.6 830.38C 263.31 831.34 266.16 829.74 268.95 829.99C 272.08 829.86 275.59 831.21 278.44 829.39C 279.87 826.67 278.74 823.48 279.25 820.55C 282.69 819.65 286.42 820.19 289.74 818.83C 292.69 817.68 292.13 814 292.81 811.5C 293.05 808.82 295.37 807.27 297.21 805.66C 296.49 798.39 287.9 793.87 289.79 785.99C 287.67 786 285.55 786.01 283.43 786.02C 283.17 787.4 282.92 788.78 282.67 790.17C 280.89 790.21 279.11 790.21 277.33 790.2C 276.74 791.23 276.16 792.27 275.55 793.29C 270.94 793.61 266.06 794.88 261.58 793.33C 259.14 788.12 256.07 783.18 254.22 777.7C 251.73 777.72 249.09 778.15 246.73 777.16C 245.14 774.55 244.56 771.49 243.24 768.75C 238.65 758.68 237.58 747.47 233.62 737.19C 231.92 736.4 229.95 736.72 228.16 736.41C 229.66 735.6 231.04 733.78 232.95 734.42C 234.92 734.29 235.41 736.25 236.02 737.71C 238.87 745.3 240.09 753.38 242.59 761.08C 244.08 765.85 246.14 770.41 247.88 775.09C 249.98 776.09 252.56 775.21 254.84 775.74C 257.47 777.96 257.4 781.79 259.42 784.45C 261.13 786.62 261.59 789.46 263.16 791.7C 266.84 791.87 270.61 791.95 274.24 791.19C 274.94 790.21 275.54 789.16 276.18 788.14C 277.65 788.12 279.12 788.11 280.6 788.08C 281.27 786.86 281.42 785.23 282.58 784.35C 285.56 783.16 288.8 783.94 291.76 784.76C 292.04 787.24 291.12 790.02 292.61 792.23C 294.76 796.35 298.25 799.72 299.49 804.31C 302.06 802.56 304.47 800.62 306.76 798.52C 309.87 797.32 312.26 800.13 315.01 800.9C 318.01 800.34 319.59 797.21 320.87 794.73C 320.37 786.74 314.03 781.19 310.33 774.6C 307.86 770.27 303.49 767.71 299.09 765.73C 292.79 761.79 284.8 763.07 278.31 759.59C 277.12 758.9 275.68 758.02 275.63 756.47C 275.05 750.23 274.75 743.97 274.21 737.72C 274.74 737.72 275.81 737.71 276.34 737.71C 276.84 744.14 277.3 750.58 277.72 757.03C 284.32 761.09 292.72 759.57 299.31 763.56C 302.3 765.18 305.6 766.38 308.11 768.76C 312.05 772.33 314.02 777.43 317.42 781.46C 320.29 784.66 321.59 788.8 322.91 792.8C 325.72 793.19 328.67 793.81 331.18 792.04C 329.04 790.43 327.84 788.22 327.57 785.57C 331.22 785.43 334.91 785.83 338.54 785.33C 340.38 784.05 341.03 781.78 342.02 779.87C 344.3 774.78 348.98 771.27 351.46 766.31C 352.63 763.51 353.32 759.4 350.56 757.3C 346.26 755.17 340.63 757.37 336.8 754.09C 334.4 751.04 335.93 746.94 337.89 744.1C 331.47 741.2 324.88 738.11 319.83 733.07C 316.6 730.09 320.1 726.07 320.83 722.79C 317.71 721.13 314.34 720.1 311.01 719.01C 311.47 718.65 312.41 717.94 312.88 717.59C 316.13 718.43 319.52 719.55 322.07 721.83C 324.51 725.01 318.26 729.12 321.69 732.08C 326.6 736.77 332.96 739.52 339.01 742.43C 339.37 739.14 341.42 736.68 343.45 734.27C 346.2 728.19 348.43 721.76 352.6 716.45C 353.65 715.25 354.55 713.47 356.39 713.5C 360.83 713.12 365.34 713.6 369.73 712.61C 369.98 706.83 370.11 700.93 368.8 695.26C 367.98 691.41 365.15 688.45 363.86 684.8C 363.01 682.25 364.56 679.9 365.38 677.58C 363.44 677.7 361.43 677.69 359.65 678.55C 352.66 681.95 346.96 687.71 339.61 690.37C 333.92 690.5 328.17 690.99 322.74 692.74C 319.02 694.69 318.98 699.76 315.78 702.35C 314.4 701.08 313.7 697.36 311.28 698.97C 309.09 699.84 305.44 702.02 304.05 698.9C 302.44 694.45 303.42 689.52 306.43 685.89C 299.65 687.97 292.57 688.56 285.52 687.97C 284.54 692.02 282.11 695.6 281.61 699.78C 280.68 705 277.73 709.53 275.18 714.08C 272.18 719.09 269.6 724.32 266.79 729.44C 266.56 728.98 266.1 728.05 265.87 727.59C 269.58 717.17 278.12 708.76 279.9 697.6C 272.64 696.31 265.24 694.25 259.44 689.48C 257.76 688.22 256.29 686.23 253.98 686.28C 251.6 685.94 249.79 687.79 247.7 688.54C 245.31 688.83 242.89 688.56 240.49 688.53C 241.46 691.27 244.91 694.33 242.38 697.17C 240.39 699.6 237.64 701.23 235.2 703.16C 234.71 704.92 235.12 707.19 233.56 708.47C 231.51 710.27 229.25 711.82 227.18 713.61C 229.01 717.8 233.98 719.35 235.67 723.49C 232.45 722.76 230.11 720.27 227.88 718.01C 225.63 715.87 225.45 712.52 223.66 710.09C 221.28 708.66 219 710.96 216.92 711.9C 213.39 709.88 210.1 707.11 206.01 706.36C 201.3 705.98 196.58 706.65 191.87 706.46C 192.06 710.66 187.85 712.55 185.55 715.38C 184.12 717.49 182.98 719.78 181.75 722.02C 181.35 721.71 180.55 721.1 180.15 720.79C 182.18 715.82 185.72 711.83 189.8 708.43C 189.04 706.26 188.21 704.11 187.52 701.92C 182.16 703.8 176.46 703 170.92 702.82C 167.29 702.54 162.93 702.51 160.61 699.21C 160.26 697.4 160.74 695.58 160.93 693.78C 153.39 689.03 145.05 685.77 137.17 681.66C 133.5 679.38 131.1 675.55 129.04 671.86C 127.57 668.67 124.12 667.26 121.22 665.69C 120.38 669.17 121.29 672.87 120.39 676.28C 117.14 679.59 112.47 680.64 107.97 680.23C 104.45 679.68 102.45 683.7 99.05 683.64C 96.79 682 95.4 679.35 92.93 678C 86.72 675.46 80.63 671.7 76.89 665.99C 72.28 660.15 66.38 655.52 60.78 650.68C 58.15 653.27 54.72 655.39 53.26 658.91zM 268.43 657.12C 264.52 658.45 260.78 660.43 256.6 660.74C 256.72 664.85 251.48 665.07 250.71 668.72C 249.5 673.49 243.92 674.55 241.46 678.42C 240.5 680.92 240.84 683.67 240.76 686.28C 243.34 686.29 246.29 687.33 248.58 685.72C 251.53 683.59 256.02 683.53 258.67 686.18C 264.54 691.78 272.47 694.4 280.36 695.49C 283.82 690.33 283.22 683.88 282.02 678.1C 280.7 674.15 277.72 670.92 276.81 666.8C 276.48 664.27 278.28 662.18 278.81 659.81C 279.1 657.1 278.8 654.36 278.46 651.67C 274.36 651.89 272.09 655.82 268.43 657.12zM 224.76 690.27C 214.45 691.92 204.03 689.45 193.69 690.23C 194.68 691.79 195.88 693.23 196.68 694.92C 195.61 698.1 192.06 699.31 189.47 700.97C 189.81 702.11 190.17 703.24 190.56 704.37C 195.07 704.42 199.57 704.18 204.07 704.11C 208.98 703.96 213 707.13 216.97 709.57C 219.02 707.92 221.49 707.31 224.09 707.44C 225.11 708.62 226.1 709.83 227.07 711.06C 228.76 709.75 230.56 708.55 232.1 707.04C 232.8 705.56 232.79 703.87 233.36 702.35C 235.12 700.36 237.51 699.1 239.42 697.28C 243.12 694.61 238.43 690.75 238.17 687.47C 233.57 687.75 229.23 689.33 224.76 690.27zM 79.24 709.4C 78.22 714.88 75.9 720.14 76.15 725.8C 75.85 728.24 78.23 729.77 78.91 731.94C 78.23 734.03 76.51 735.73 76.38 738.01C 76.11 741.72 73.78 745.13 74.74 748.92C 77.48 749.3 80.46 749.38 82.83 751.01C 84.21 752.22 84.93 753.97 85.89 755.5C 87.74 753.47 89.37 751.12 91.77 749.69C 95.05 747.92 99.01 747.77 102.58 748.56C 104.7 749.11 106.1 751.05 108.17 751.69C 110.59 751.9 113.02 751.75 115.44 751.74C 115.99 747.2 118.43 743.34 121.3 739.91C 121.21 737.47 119.78 734.62 121.49 732.47C 123.42 729.78 126.04 727.71 128.72 725.82C 127.51 720.31 124.73 715.38 122.53 710.24C 118.23 710.29 113.92 709.99 109.75 708.91C 109.24 715.14 110.07 721.49 108.82 727.66C 108.41 730.01 105.97 731.19 103.83 731.54C 99.9 732.2 95.9 732.02 91.94 732.24C 89.81 732.21 86.76 732.46 85.75 730.09C 83.17 723.17 81.14 715.99 81 708.56C 80.56 708.77 79.68 709.19 79.24 709.4zM 117.26 753.3C 114 753.99 110.56 754.43 107.27 753.64C 105.2 753.16 103.87 751.28 101.94 750.52C 98.63 749.96 94.85 749.95 92 751.96C 89.45 753.83 88.06 757.85 84.3 757.31C 83.34 755.69 82.79 753.75 81.35 752.47C 79.39 751.43 77.13 751.37 74.98 751.08C 73.47 754.12 71.81 757.13 71.15 760.5C 69.41 760.57 67.67 760.61 65.94 760.72C 66.74 764.99 72.85 764.86 73.69 769.13C 74.4 771.75 71.41 773.45 71.37 776.01C 71.37 778.61 69.22 780.11 67.85 782.03C 67.27 783.5 68.8 784.83 70.13 785.14C 73.18 784.61 75.93 783.01 79 782.53C 81.4 781.79 83.41 783.61 85.53 784.4C 87.88 785.63 90.57 785.76 93.17 785.88C 93.29 783 93.14 780.13 92.86 777.27C 94.18 777.74 95.5 778.21 96.83 778.67C 101.74 773.75 106.35 768.46 111.89 764.23C 114.82 766.57 116.82 769.98 120.2 771.75C 123.18 773.46 125.3 776.26 128.14 778.17C 131.67 778.36 135.22 778.04 138.76 777.83C 139.07 777.27 139.7 776.16 140.01 775.6C 137.71 774.58 134.81 773.62 134.1 770.89C 132.46 765 133.04 758.69 131.23 752.83C 130.67 750.83 128.69 749.89 127.23 748.65C 125.01 747.01 123.58 744.61 122.01 742.4C 119.03 745.3 117.93 749.33 117.26 753.3zM 155.2 771.15C 150.61 772.11 146.98 775.84 142.1 775.6C 141.82 776.09 141.25 777.08 140.96 777.57C 143.45 778.27 146.99 777.86 148.5 780.34C 149.71 787 146.44 794.91 151.16 800.69C 155.08 803 159.37 805.18 161.84 809.22C 162.45 811.55 161.66 814.36 163.77 816.13C 166.25 818.42 167.08 821.63 167.62 824.85C 172.78 825.42 176.79 820.81 181.96 821.43C 184.86 821.71 187.84 822.01 190.64 820.96C 190.75 819.32 190.78 817.68 190.95 816.05C 193.17 812.93 195.92 810.22 198.43 807.33C 199.77 805.61 202.26 805.94 203.89 804.69C 205.49 803.43 207.02 802.09 208.52 800.71C 209.51 795.37 206.12 790.69 204.79 785.74C 200.75 785.68 196.25 786.77 192.74 784.15C 187.68 780.75 187.78 773.97 186.93 768.59C 178.29 769.2 169.7 767.01 161.05 767.25C 158.83 768.08 157.65 770.66 155.2 771.15zM 117.43 772.57C 116.86 773.15 115.71 774.3 115.14 774.88C 119.13 781.91 123.31 788.87 126.66 796.23C 128 798.24 126.55 800.45 126.47 802.59C 128.56 804.96 131.25 806.83 134.39 807.48C 134.81 812.39 134.65 817.68 136.58 822.24C 139.79 823.63 142.48 826.4 146.13 826.56C 146.19 825.11 146.26 823.66 146.33 822.21C 148.93 821.84 151.72 822.12 154.12 820.92C 155.95 817.18 157.31 813.2 160.12 810.02C 157.46 806.41 153.39 804.53 149.77 802.16C 144.41 796.29 147.15 787.8 146.59 780.68C 140.22 779.05 133.6 781 127.2 779.93C 123.7 777.79 121.33 774.12 117.43 772.57z"/>
<g>
<path style="stroke:none; fill:#ffffff" d="M 230.94 551.79C 234.67 552.93 238.62 553.56 241.92 555.77C 243.05 555.5 244.17 555.21 245.29 554.91C 246.16 557.54 246.59 560.3 247.63 562.88C 249.75 561.6 251.63 559.89 253.99 559.04C 255.44 559.82 256.27 561.25 257.13 562.59C 258.14 561.85 259.17 561.14 260.23 560.47C 261.16 563.59 261.47 566.85 261.69 570.07C 261.27 574.33 260.31 578.6 260.87 582.89C 261.71 589.24 263.14 595.5 264.45 601.78C 264.8 603.64 265.13 605.58 264.71 607.46C 262.68 609.11 259.65 609.81 258.66 612.51C 257.95 615.16 258.5 617.95 257.95 620.62C 257.14 621.85 255.89 622.7 254.86 623.73C 251.05 619.32 247.18 614.95 243.21 610.67C 240.43 607.66 236.43 606.04 233.85 602.85C 231.73 599.14 234.62 595.32 235.87 591.87C 238.47 585.73 235.31 578.45 229.97 574.91C 226.84 570.91 227.6 565.19 228.77 560.61C 231.18 558.24 230.54 554.84 230.94 551.79z"/>
<path style="stroke:none; fill:#ffffff" d="M 275.7 561.29C 280.39 560.95 285.05 558.27 289.69 560.29C 290.45 561.82 291.08 563.42 291.92 564.92C 294.86 565.53 297.89 565.35 300.86 565.8C 302.04 569.96 297.58 571.77 296.43 575.14C 297.15 579.26 297.95 583.53 300.19 587.14C 299.33 588.84 297.78 590.02 296.66 591.53C 296.11 595.54 296.54 599.62 296.67 603.65C 296.85 606.37 297.38 609.75 300.13 611.07C 303.61 611.84 307.16 611.07 310.67 610.98C 311.95 614.83 313.57 618.75 313.46 622.88C 311.57 627.05 307.03 629.96 307.2 635.02C 301.09 638.11 294.27 634.85 287.98 636.93C 283.05 638.2 278.22 640.53 273.02 640.24C 268.14 639.6 267.36 633.69 263.5 631.51C 260.66 629.98 258.25 627.82 256.07 625.45C 257.51 623.98 259.3 622.72 260.14 620.76C 260.52 618.31 260.14 615.81 260.59 613.37C 261.72 611.1 264.4 610.49 266.42 609.29C 266.67 607.83 267.02 606.38 267.08 604.89C 265.73 594.37 261.44 583.94 263.42 573.23C 264.02 570.48 265.2 567.86 265.3 565.01C 268.98 564.31 271.85 561.33 275.7 561.29z"/>
<path style="stroke:none; fill:#ffffff" d="M 215.76 572.45C 219.2 571.97 222.7 571.96 226.08 571.11C 226.9 573.09 226.95 575.68 229.03 576.84C 232.25 578.84 234.1 582.49 234.65 586.15C 235.52 591.97 229.17 596.68 231.42 602.51C 233.12 606.9 238.15 608.4 241.25 611.61C 245.83 616.39 250.3 621.3 254.44 626.48C 256.18 628.7 258.23 630.67 260.57 632.28C 258.34 633.7 255.57 635.08 255.26 638.04C 254.56 642.21 250.01 645.71 245.78 644.45C 242.4 643.44 238.88 643.6 235.39 643.45C 233.88 642.75 232.88 641.31 231.8 640.09C 229.51 637.77 230.17 634.24 229.3 631.33C 226.49 630.44 223.1 630.24 221.49 627.37C 217.67 621.69 209.52 620.31 207.15 613.54C 206.15 611.63 207.73 609.7 207.97 607.8C 207.8 604.31 203.31 602 204.27 598.35C 207.02 596.67 209.49 594.66 210.67 591.55C 212.67 590.76 215.11 590.42 216.36 588.43C 216.93 585.96 217.3 583.43 217.33 580.89C 216.94 578.73 215.49 576.94 214.57 574.98C 214.87 574.35 215.46 573.08 215.76 572.45z"/>
<path style="stroke:none; fill:#ffffff" d="M 165.77 605.61C 170.21 602.85 171.5 596.05 177.08 595.06C 178.43 596.77 178.98 599.01 180.48 600.6C 182.55 601.6 186.54 600.94 186.54 604.16C 186.54 606.98 188.89 609.08 188.89 611.87C 189.02 614.55 189.61 617.21 189.54 619.9C 189.09 622.1 188.27 624.19 187.62 626.33C 184.7 627.79 180.97 628.32 178.88 631.01C 179.97 636.13 180.73 641.36 179.58 646.56C 177.37 647.9 174.75 649 173.35 651.29C 172.78 653.2 173.1 655.34 172.2 657.14C 169.86 660.17 165.53 660.16 162.77 662.63C 160.63 664.35 161.59 667.7 159.66 669.59C 158.12 671.45 154.88 673.38 152.87 671.14C 151.53 670.46 150.17 667.68 148.68 669.49C 145.29 673.03 142.15 676.83 139.02 680.62C 133.14 677.04 131.35 670.01 126.54 665.44C 128.97 666.18 131.28 668.17 133.95 667.5C 136.73 667.16 138.27 664.22 138.32 661.65C 138.55 655.46 138.81 649.26 139.42 643.09C 140.27 639.31 143.71 636.84 145.16 633.33C 145.71 629.57 145.44 625.74 145.77 621.96C 146.64 620.7 148.59 620.56 149.21 619.12C 149.49 616.92 149.31 614.71 149.31 612.5C 155.64 613.05 160.75 608.77 165.77 605.61z"/>
<path style="stroke:none; fill:#ffffff" d="M 200.24 622.13C 202.81 621.26 205.36 620.3 207.82 619.15C 210.74 621.19 213.77 623.06 216.58 625.25C 218.81 627.03 220.34 629.5 222.44 631.4C 224.01 632.28 225.85 632.4 227.57 632.84C 227.23 637.81 230 642.13 233.72 645.15C 237.19 646.19 240.96 645.25 244.46 646.33C 250.05 648.24 256.46 643.93 257.46 638.26C 257.96 635.52 261.06 634.69 263.01 633.16C 265.04 635.69 266.51 638.73 269.06 640.8C 271.62 642.77 274.97 642.34 277.97 642.07C 277.87 644.56 277.87 647.05 277.96 649.54C 273.31 649.75 270.91 654.41 266.67 655.61C 263.32 656.77 260.08 658.31 256.5 658.62C 254.02 658.94 254.53 662.4 252.48 663.38C 249.65 664.77 248.96 667.87 247.64 670.42C 244.16 672.91 240.82 675.6 238.07 678.91C 236.75 677.79 235.43 676.66 234.11 675.54C 232.13 675.67 230.16 675.76 228.18 675.74C 225.85 672.23 224.46 667.58 220.32 665.74C 217 664.92 213.52 665.49 210.14 665.3C 208.7 662.69 206.19 661.19 203.69 659.78C 201.65 656.11 207.06 655.72 208.72 653.58C 211.31 649.24 210.64 643.62 208.59 639.19C 207.11 635.86 207 632.16 206.08 628.69C 205.44 626.22 202.54 626.66 200.59 626.34C 200.47 624.93 200.35 623.53 200.24 622.13z"/>
<path style="stroke:none; fill:#ffffff" d="M 189.5 627.36C 192.2 625.5 195.59 624.96 198.13 622.8C 198.4 624.64 198.63 626.48 198.9 628.31C 200.64 628.56 202.37 628.79 204.11 629.06C 204.82 632.81 205.26 636.66 206.77 640.2C 208.42 643.89 208.94 648.32 207.14 652.05C 205.62 653.63 203.35 654.17 201.75 655.65C 201.22 657.18 201.06 658.84 201.34 660.43C 203.23 662.32 205.98 663.14 207.57 665.37C 210.77 669.87 217.3 665.4 221.18 668.7C 223.86 670.88 224.38 674.64 226.86 676.99C 228.17 678.39 230.2 677.94 231.91 678.06C 234.6 677.86 236.31 680.52 238.78 681.24C 238.72 682.64 238.69 684.05 238.68 685.46C 231.6 685.33 225.15 689.09 218.04 688.83C 209.46 690.22 200.79 686.13 192.33 688.64C 189.64 685.46 186.78 682.42 183.82 679.49C 185.36 677.19 187.31 674.89 187.29 671.96C 187.32 668.28 187.53 664.6 187.46 660.92C 186.61 659.2 184.96 658.09 183.66 656.75C 183.76 653.31 183.64 649.83 181.64 646.88C 182.57 641.64 182.45 636.33 180.97 631.2C 183.9 630.14 186.86 629.06 189.5 627.36z"/>
<path style="stroke:none; fill:#ffffff" d="M 309.56 637.41C 311.64 636.7 314.03 635.45 316.18 636.66C 317.72 637.97 317 640.09 317.08 641.83C 316.85 645.45 317.72 649.06 317.34 652.67C 316.42 653.79 315.35 654.78 314.34 655.81C 315.24 658.38 315.89 661.04 316.15 663.75C 314.87 664.58 313.59 665.41 312.32 666.23C 312.18 668.01 312.29 669.83 311.86 671.57C 309.52 676.22 303.2 678.81 303.58 684.66C 297.55 686.02 291.39 686.33 285.24 685.71C 284.89 683.05 284.68 680.36 284.05 677.75C 282.96 674.14 280.34 671.23 279.21 667.64C 278.32 663.85 281.84 660.73 281.13 656.9C 280.35 651.75 279.79 646.58 280.15 641.36C 285.65 639.91 291.18 637.53 296.99 638.42C 301.25 639.23 305.35 637.67 309.56 637.41z"/>
<path style="stroke:none; fill:#ffffff" d="M 176.8 650.59C 177.9 649.62 179.33 649.23 180.7 648.82C 181.63 651.53 181.25 654.42 181.76 657.19C 182.73 658.93 184.44 660.11 185.43 661.84C 185.32 665.2 185.25 668.57 185.16 671.94C 185.11 674.76 182.96 676.82 181.47 679C 185.71 684.52 190.74 689.4 194.68 695.16C 190.47 698.27 185.51 701.24 180.07 700.78C 174.87 700.6 169.45 701.29 164.42 699.66C 161.58 698.7 162.84 695.94 163.51 693.9C 156.66 688.66 148.74 685.13 141.1 681.23C 143.81 677.81 146.86 674.69 149.75 671.42C 151.39 672.54 152.79 674.6 155.02 674.26C 160.02 674.01 163.15 669.19 163.82 664.64C 166.59 661.85 171.2 661.78 173.72 658.61C 175.86 656.36 174 652.36 176.8 650.59z"/>
<path style="stroke:none; fill:#ffffff" d="M 53.26 658.91C 54.72 655.39 58.15 653.27 60.78 650.68C 66.38 655.52 72.28 660.15 76.89 665.99C 80.63 671.7 86.72 675.46 92.93 678C 95.4 679.35 96.79 682 99.05 683.64C 102.45 683.7 104.45 679.68 107.97 680.23C 112.47 680.64 117.14 679.59 120.39 676.28C 121.29 672.87 120.38 669.17 121.22 665.69C 124.12 667.26 127.57 668.67 129.04 671.86C 131.1 675.55 133.5 679.38 137.17 681.66C 145.05 685.77 153.39 689.03 160.93 693.78C 160.74 695.58 160.26 697.4 160.61 699.21C 162.93 702.51 167.29 702.54 170.92 702.82C 176.46 703 182.16 703.8 187.52 701.92C 188.21 704.11 189.04 706.26 189.8 708.43C 185.72 711.83 182.18 715.82 180.15 720.79C 180.55 721.1 181.35 721.71 181.75 722.02C 182.98 719.78 184.12 717.49 185.55 715.38C 187.85 712.55 192.06 710.66 191.87 706.46C 196.58 706.65 201.3 705.98 206.01 706.36C 210.1 707.11 213.39 709.88 216.92 711.9C 219 710.96 221.28 708.66 223.66 710.09C 225.45 712.52 225.63 715.87 227.88 718.01C 230.11 720.27 232.45 722.76 235.67 723.49C 233.98 719.35 229.01 717.8 227.18 713.61C 229.25 711.82 231.51 710.27 233.56 708.47C 235.12 707.19 234.71 704.92 235.2 703.16C 237.64 701.23 240.39 699.6 242.38 697.17C 244.91 694.33 241.46 691.27 240.49 688.53C 242.89 688.56 245.31 688.83 247.7 688.54C 249.79 687.79 251.6 685.94 253.98 686.28C 256.29 686.23 257.76 688.22 259.44 689.48C 265.24 694.25 272.64 696.31 279.9 697.6C 278.12 708.76 269.58 717.17 265.87 727.59C 266.1 728.05 266.56 728.98 266.79 729.44C 269.6 724.32 272.18 719.09 275.18 714.08C 277.73 709.53 280.68 705 281.61 699.78C 282.11 695.6 284.54 692.02 285.52 687.97C 292.57 688.56 299.65 687.97 306.43 685.89C 303.42 689.52 302.44 694.45 304.05 698.9C 305.44 702.02 309.09 699.84 311.28 698.97C 313.7 697.36 314.4 701.08 315.78 702.35C 318.98 699.76 319.02 694.69 322.74 692.74C 328.17 690.99 333.92 690.5 339.61 690.37C 346.96 687.71 352.66 681.95 359.65 678.55C 361.43 677.69 363.44 677.7 365.38 677.58C 364.56 679.9 363.01 682.25 363.86 684.8C 365.15 688.45 367.98 691.41 368.8 695.26C 370.11 700.93 369.98 706.83 369.73 712.61C 365.34 713.6 360.83 713.12 356.39 713.5C 354.55 713.47 353.65 715.25 352.6 716.45C 348.43 721.76 346.2 728.19 343.45 734.27C 341.42 736.68 339.37 739.14 339.01 742.43C 332.96 739.52 326.6 736.77 321.69 732.08C 318.26 729.12 324.51 725.01 322.07 721.83C 319.52 719.55 316.13 718.43 312.88 717.59C 312.41 717.94 311.47 718.65 311.01 719.01C 314.34 720.1 317.71 721.13 320.83 722.79C 320.1 726.07 316.6 730.09 319.83 733.07C 324.88 738.11 331.47 741.2 337.89 744.1C 335.93 746.94 334.4 751.04 336.8 754.09C 340.63 757.37 346.26 755.17 350.56 757.3C 353.32 759.4 352.63 763.51 351.46 766.31C 348.98 771.27 344.3 774.78 342.02 779.87C 341.03 781.78 340.38 784.05 338.54 785.33C 334.91 785.83 331.22 785.43 327.57 785.57C 327.84 788.22 329.04 790.43 331.18 792.04C 328.67 793.81 325.72 793.19 322.91 792.8C 321.59 788.8 320.29 784.66 317.42 781.46C 314.02 777.43 312.05 772.33 308.11 768.76C 305.6 766.38 302.3 765.18 299.31 763.56C 292.72 759.57 284.32 761.09 277.72 757.03C 277.3 750.58 276.84 744.14 276.34 737.71C 275.81 737.71 274.74 737.72 274.21 737.72C 274.75 743.97 275.05 750.23 275.63 756.47C 275.68 758.02 277.12 758.9 278.31 759.59C 284.8 763.07 292.79 761.79 299.09 765.73C 303.49 767.71 307.86 770.27 310.33 774.6C 314.03 781.19 320.37 786.74 320.87 794.73C 319.59 797.21 318.01 800.34 315.01 800.9C 312.26 800.13 309.87 797.32 306.76 798.52C 304.47 800.62 302.06 802.56 299.49 804.31C 298.25 799.72 294.76 796.35 292.61 792.23C 291.12 790.02 292.04 787.24 291.76 784.76C 288.8 783.94 285.56 783.16 282.58 784.35C 281.42 785.23 281.27 786.86 280.6 788.08C 279.12 788.11 277.65 788.12 276.18 788.14C 275.54 789.16 274.94 790.21 274.24 791.19C 270.61 791.95 266.84 791.87 263.16 791.7C 261.59 789.46 261.13 786.62 259.42 784.45C 257.4 781.79 257.47 777.96 254.84 775.74C 252.56 775.21 249.98 776.09 247.88 775.09C 246.14 770.41 244.08 765.85 242.59 761.08C 240.09 753.38 238.87 745.3 236.02 737.71C 235.41 736.25 234.92 734.29 232.95 734.42C 231.04 733.78 229.66 735.6 228.16 736.41C 229.95 736.72 231.92 736.4 233.62 737.19C 237.58 747.47 238.65 758.68 243.24 768.75C 244.56 771.49 245.14 774.55 246.73 777.16C 249.09 778.15 251.73 777.72 254.22 777.7C 256.07 783.18 259.14 788.12 261.58 793.33C 266.06 794.88 270.94 793.61 275.55 793.29C 276.16 792.27 276.74 791.23 277.33 790.2C 279.11 790.21 280.89 790.21 282.67 790.17C 282.92 788.78 283.17 787.4 283.43 786.02C 285.55 786.01 287.67 786 289.79 785.99C 287.9 793.87 296.49 798.39 297.21 805.66C 295.37 807.27 293.05 808.82 292.81 811.5C 292.13 814 292.69 817.68 289.74 818.83C 286.42 820.19 282.69 819.65 279.25 820.55C 278.74 823.48 279.87 826.67 278.44 829.39C 275.59 831.21 272.08 829.86 268.95 829.99C 266.16 829.74 263.31 831.34 260.6 830.38C 258.21 828.4 256.88 825.42 254.44 823.49C 252.97 823.01 251.43 822.74 249.93 822.39C 249.56 820.26 249.27 818.09 249.54 815.92C 250.29 810.27 248.31 804.75 248.38 799.1C 248.68 796.58 245.97 795.62 244.32 794.39C 243.13 796.83 242.92 799.99 240.84 801.88C 237.08 803.93 231.67 806.28 227.98 802.9C 225.85 799.9 224.75 796.32 222.94 793.13C 220.61 793.12 218.28 793.1 215.95 793.11C 215.78 795.2 215.62 797.3 215.42 799.4C 213.94 799.7 212.46 800 210.98 800.27C 211.02 795.72 209.15 791.61 207.58 787.46C 205.21 780.65 208.7 773.79 208.36 766.89C 208.23 763.66 208.97 759.93 206.67 757.26C 205.86 755.85 204.02 756.05 202.69 755.6C 204.7 757.92 206.82 760.51 206.25 763.82C 206.93 770.53 204.4 776.97 204.71 783.64C 200.41 783.57 195.07 784.81 192.09 780.78C 189.33 776.6 190.01 771.13 187.81 766.67C 178.86 766.93 170 764.98 161.05 765.17C 157.87 765.17 156.66 769.03 153.6 769.53C 149.8 770.45 146.67 773.11 142.75 773.59C 143.61 771.6 144.49 769.53 146.15 768.06C 148.23 765.93 151.29 765.3 153.57 763.45C 156.38 760.57 155.91 756.14 157.79 752.76C 159.2 750.07 160.35 747.26 161.04 744.3C 165.89 743.91 170.76 743.92 175.6 743.37C 176.99 743.44 177.99 742.53 178.48 741.29C 172.21 741.58 165.88 741.51 159.66 742.51C 158.5 745.93 157.16 749.27 155.6 752.53C 154.06 755.55 154.46 759.4 152.14 762.02C 149.93 763.54 147.19 764.22 145.24 766.12C 142.91 768.12 141.64 770.97 140.2 773.61C 138.44 772.51 136.04 771.61 135.76 769.25C 134.78 763.66 134.84 757.9 133.29 752.41C 132.01 748.38 127.34 747.1 125.29 743.57C 122.86 741.05 122.93 737.32 122.87 734.05C 124.87 730.95 128.11 729.01 130.57 726.32C 130.15 718.7 124.93 712.46 122.65 705.35C 122.27 703.2 120.11 702.29 118.54 701.13C 119.32 703.52 120.29 705.84 121.22 708.17C 116.63 708.38 112.22 707.22 107.86 706.01C 106.95 713.16 108.07 720.46 106.74 727.56C 104.82 730.36 100.92 729.5 98.02 729.84C 94.58 729.74 90.8 730.97 87.58 729.35C 85.8 723.38 83.31 717.43 83.47 711.08C 83.59 708.62 81.56 706.47 79.07 706.51C 76.05 709.5 76.35 714.17 75.14 717.99C 73.16 718.07 71.16 718.23 69.19 717.99C 67.78 716.89 67.03 715.18 65.7 714.01C 61.7 713.05 57.24 713.62 53.59 715.52C 51.02 716.78 51.91 719.98 51.59 722.26C 47.22 720.32 50.41 714.84 48.29 711.63C 45.76 708.95 41.82 709.68 38.53 709.21C 36.14 708.15 33.69 707.2 31.13 706.6C 30.2 703.78 29.4 700.91 28.89 697.98C 30 697.7 31.1 697.38 32.18 697C 34.47 694.79 34.1 691.4 34.67 688.54C 36.75 685.86 40.69 686.08 43.36 684.21C 46.68 681.68 48.84 677.92 50.23 674.05C 51.38 670.3 55.03 668.31 57.58 665.61C 56.28 663.3 53.74 661.58 53.26 658.91zM 90.45 677.91C 94.6 689.2 107.18 692.69 116.47 698.51C 124.38 703.42 130.4 710.98 139 714.87C 145.93 718.88 154.12 718.52 161.82 719.26C 166.66 719.68 170.81 722.51 174.68 725.21C 178.09 727.6 177.09 732.29 177.64 735.86C 178.13 742.06 180.63 749.98 187.56 751.4C 194.3 752.9 201 755.39 207.97 755.17C 211.24 754.08 213.36 750.97 215.97 748.83C 218.87 746.47 219.65 742.63 221.85 739.77C 223.95 737.79 226.58 736.51 228.93 734.85C 234.21 731.46 239.01 727.29 244.63 724.43C 246.87 723.1 249.97 723.17 251.89 725.06C 256.23 728.66 259 734.9 265.22 735.58C 276.06 737.08 288.23 739.09 298.09 733.05C 308.29 726.69 313.48 715.02 315.83 703.65C 314.45 702.11 313.1 700.54 311.72 699C 310.08 705.7 309.69 712.96 306.08 719C 303 722.9 298.83 725.77 294.95 728.81C 291.31 731.69 286.56 732.4 282.04 732.37C 278.21 732.37 274.32 732.93 270.52 732.24C 264.19 729.17 259.6 723.3 252.97 720.74C 248.19 719.38 243.13 719.68 238.23 720.09C 235.66 724.09 232.22 727.44 228.32 730.14C 224.48 733.06 219.88 734.89 216.35 738.22C 213.51 741.76 212.75 747.04 208.46 749.33C 204.95 751.51 201.43 748.24 197.92 747.86C 193.51 747.35 188.18 747.58 185 743.93C 181.01 737.87 183 730.23 181.31 723.55C 179.59 720.96 177 719.07 174.34 717.53C 169.61 715 164.07 715.82 158.95 714.91C 149.24 713.27 139.49 710.29 131.47 704.39C 121.1 696.33 110.2 688.75 98.05 683.62C 95.4 681.87 93.56 679.01 90.45 677.91z"/>
<path style="stroke:none; fill:#ffffff" d="M 268.43 657.12C 272.09 655.82 274.36 651.89 278.46 651.67C 278.8 654.36 279.1 657.1 278.81 659.81C 278.28 662.18 276.48 664.27 276.81 666.8C 277.72 670.92 280.7 674.15 282.02 678.1C 283.22 683.88 283.82 690.33 280.36 695.49C 272.47 694.4 264.54 691.78 258.67 686.18C 256.02 683.53 251.53 683.59 248.58 685.72C 246.29 687.33 243.34 686.29 240.76 686.28C 240.84 683.67 240.5 680.92 241.46 678.42C 243.92 674.55 249.5 673.49 250.71 668.72C 251.48 665.07 256.72 664.85 256.6 660.74C 260.78 660.43 264.52 658.45 268.43 657.12z"/>
<path style="stroke:none; fill:#ffffff" d="M 224.76 690.27C 229.23 689.33 233.57 687.75 238.17 687.47C 238.43 690.75 243.12 694.61 239.42 697.28C 237.51 699.1 235.12 700.36 233.36 702.35C 232.79 703.87 232.8 705.56 232.1 707.04C 230.56 708.55 228.76 709.75 227.07 711.06C 226.1 709.83 225.11 708.62 224.09 707.44C 221.49 707.31 219.02 707.92 216.97 709.57C 213 707.13 208.98 703.96 204.07 704.11C 199.57 704.18 195.07 704.42 190.56 704.37C 190.17 703.24 189.81 702.11 189.47 700.97C 192.06 699.31 195.61 698.1 196.68 694.92C 195.88 693.23 194.68 691.79 193.69 690.23C 204.03 689.45 214.45 691.92 224.76 690.27z"/>
<path style="stroke:none; fill:#ffffff" d="M 79.24 709.4C 79.68 709.19 80.56 708.77 81 708.56C 81.14 715.99 83.17 723.17 85.75 730.09C 86.76 732.46 89.81 732.21 91.94 732.24C 95.9 732.02 99.9 732.2 103.83 731.54C 105.97 731.19 108.41 730.01 108.82 727.66C 110.07 721.49 109.24 715.14 109.75 708.91C 113.92 709.99 118.23 710.29 122.53 710.24C 124.73 715.38 127.51 720.31 128.72 725.82C 126.04 727.71 123.42 729.78 121.49 732.47C 119.78 734.62 121.21 737.47 121.3 739.91C 118.43 743.34 115.99 747.2 115.44 751.74C 113.02 751.75 110.59 751.9 108.17 751.69C 106.1 751.05 104.7 749.11 102.58 748.56C 99.01 747.77 95.05 747.92 91.77 749.69C 89.37 751.12 87.74 753.47 85.89 755.5C 84.93 753.97 84.21 752.22 82.83 751.01C 80.46 749.38 77.48 749.3 74.74 748.92C 73.78 745.13 76.11 741.72 76.38 738.01C 76.51 735.73 78.23 734.03 78.91 731.94C 78.23 729.77 75.85 728.24 76.15 725.8C 75.9 720.14 78.22 714.88 79.24 709.4z"/>
<path style="stroke:none; fill:#ffffff" d="M 117.26 753.3C 117.93 749.33 119.03 745.3 122.01 742.4C 123.58 744.61 125.01 747.01 127.23 748.65C 128.69 749.89 130.67 750.83 131.23 752.83C 133.04 758.69 132.46 765 134.1 770.89C 134.81 773.62 137.71 774.58 140.01 775.6C 139.7 776.16 139.07 777.27 138.76 777.83C 135.22 778.04 131.67 778.36 128.14 778.17C 125.3 776.26 123.18 773.46 120.2 771.75C 116.82 769.98 114.82 766.57 111.89 764.23C 106.35 768.46 101.74 773.75 96.83 778.67C 95.5 778.21 94.18 777.74 92.86 777.27C 93.14 780.13 93.29 783 93.17 785.88C 90.57 785.76 87.88 785.63 85.53 784.4C 83.41 783.61 81.4 781.79 79 782.53C 75.93 783.01 73.18 784.61 70.13 785.14C 68.8 784.83 67.27 783.5 67.85 782.03C 69.22 780.11 71.37 778.61 71.37 776.01C 71.41 773.45 74.4 771.75 73.69 769.13C 72.85 764.86 66.74 764.99 65.94 760.72C 67.67 760.61 69.41 760.57 71.15 760.5C 71.81 757.13 73.47 754.12 74.98 751.08C 77.13 751.37 79.39 751.43 81.35 752.47C 82.79 753.75 83.34 755.69 84.3 757.31C 88.06 757.85 89.45 753.83 92 751.96C 94.85 749.95 98.63 749.96 101.94 750.52C 103.87 751.28 105.2 753.16 107.27 753.64C 110.56 754.43 114 753.99 117.26 753.3z"/>
<path style="stroke:none; fill:#ffffff" d="M 155.2 771.15C 157.65 770.66 158.83 768.08 161.05 767.25C 169.7 767.01 178.29 769.2 186.93 768.59C 187.78 773.97 187.68 780.75 192.74 784.15C 196.25 786.77 200.75 785.68 204.79 785.74C 206.12 790.69 209.51 795.37 208.52 800.71C 207.02 802.09 205.49 803.43 203.89 804.69C 202.26 805.94 199.77 805.61 198.43 807.33C 195.92 810.22 193.17 812.93 190.95 816.05C 190.78 817.68 190.75 819.32 190.64 820.96C 187.84 822.01 184.86 821.71 181.96 821.43C 176.79 820.81 172.78 825.42 167.62 824.85C 167.08 821.63 166.25 818.42 163.77 816.13C 161.66 814.36 162.45 811.55 161.84 809.22C 159.37 805.18 155.08 803 151.16 800.69C 146.44 794.91 149.71 787 148.5 780.34C 146.99 777.86 143.45 778.27 140.96 777.57C 141.25 777.08 141.82 776.09 142.1 775.6C 146.98 775.84 150.61 772.11 155.2 771.15z"/>
<path style="stroke:none; fill:#ffffff" d="M 117.43 772.57C 121.33 774.12 123.7 777.79 127.2 779.93C 133.6 781 140.22 779.05 146.59 780.68C 147.15 787.8 144.41 796.29 149.77 802.16C 153.39 804.53 157.46 806.41 160.12 810.02C 157.31 813.2 155.95 817.18 154.12 820.92C 151.72 822.12 148.93 821.84 146.33 822.21C 146.26 823.66 146.19 825.11 146.13 826.56C 142.48 826.4 139.79 823.63 136.58 822.24C 134.65 817.68 134.81 812.39 134.39 807.48C 131.25 806.83 128.56 804.96 126.47 802.59C 126.55 800.45 128 798.24 126.66 796.23C 123.31 788.87 119.13 781.91 115.14 774.88C 115.71 774.3 116.86 773.15 117.43 772.57z"/>
</g>
<path style="stroke:none; fill:#03bdc7" d="M 90.45 677.91C 93.56 679.01 95.4 681.87 98.05 683.62C 110.2 688.75 121.1 696.33 131.47 704.39C 139.49 710.29 149.24 713.27 158.95 714.91C 164.07 715.82 169.61 715 174.34 717.53C 177 719.07 179.59 720.96 181.31 723.55C 183 730.23 181.01 737.87 185 743.93C 188.18 747.58 193.51 747.35 197.92 747.86C 201.43 748.24 204.95 751.51 208.46 749.33C 212.75 747.04 213.51 741.76 216.35 738.22C 219.88 734.89 224.48 733.06 228.32 730.14C 232.22 727.44 235.66 724.09 238.23 720.09C 243.13 719.68 248.19 719.38 252.97 720.74C 259.6 723.3 264.19 729.17 270.52 732.24C 274.32 732.93 278.21 732.37 282.04 732.37C 286.56 732.4 291.31 731.69 294.95 728.81C 298.83 725.77 303 722.9 306.08 719C 309.69 712.96 310.08 705.7 311.72 699C 313.1 700.54 314.45 702.11 315.83 703.65C 313.48 715.02 308.29 726.69 298.09 733.05C 288.23 739.09 276.06 737.08 265.22 735.58C 259 734.9 256.23 728.66 251.89 725.06C 249.97 723.17 246.87 723.1 244.63 724.43C 239.01 727.29 234.21 731.46 228.93 734.85C 226.58 736.51 223.95 737.79 221.85 739.77C 219.65 742.63 218.87 746.47 215.97 748.83C 213.36 750.97 211.24 754.08 207.97 755.17C 201 755.39 194.3 752.9 187.56 751.4C 180.63 749.98 178.13 742.06 177.64 735.86C 177.09 732.29 178.09 727.6 174.68 725.21C 170.81 722.51 166.66 719.68 161.82 719.26C 154.12 718.52 145.93 718.88 139 714.87C 130.4 710.98 124.38 703.42 116.47 698.51C 107.18 692.69 94.6 689.2 90.45 677.91z"/>
</g>
</svg>